<svg version="1.1" xmlns="http://www.w3.org/2000/svg" xmlns:xlink="http://www.w3.org/1999/xlink" x="0px" y="0px"
	 viewBox="0 0 1200 1200" >
<g id="Graphic_Element">
	<g>
		<circle style="fill:#1A2830;" cx="600" cy="600" r="450"/>
		<path style="fill:#D5AE68;" d="M538.502,376.911c0,0-164.524,52.758-79.225,243.258s363.554,40.46,295.315-127.621
			c0,0-48.336,138.509-150.694,89.352c-102.358-49.157,2.843-207.103,71.082-204.989C674.979,376.911,620.957,346.9,538.502,376.911
			z"/>
		<path style="fill:#F1E7D8;" d="M412.77,606.246c-29.846,7.015-50.624,42.551-39.005,70.924
			c-18.339-6.441-39.302-6.934-56.775,1.582c-17.472,8.516-30.532,26.898-29.936,46.326c0.596,19.428,16.755,37.985,36.179,38.675
			c-19.648,6.78-31.563,29.315-28.619,49.891c2.944,20.576,18.915,38.02,38.323,45.463c19.407,7.442,41.573,5.68,60.889-1.994
			c-5.735,12.112,1.654,27.353,13.205,34.149c11.551,6.796,25.831,6.923,39.113,5.136c14.809-1.992,29.708-6.315,41.522-15.464
			c11.814-9.149,20.087-23.78,18.758-38.664c18.591,24.614,58.501,25.049,82.959,6.252c12.233-9.402,21.709-23.563,21.896-38.99
			c0.187-15.427-11.017-31.253-26.347-32.99c30.751,2.821,58.963-30.414,51.185-60.298c-7.778-29.884-48.612-45.15-74.086-27.696
			c6.872-19.944-2.63-44.192-21.222-54.158c-10.084-5.405-22.323-6.276-33.268-3.216c-19.346,5.407-13.678,12.447-29.013,1.562
			C456.998,617.452,443.094,599.119,412.77,606.246z"/>
		<path style="fill:#F1E7D8;" d="M807.812,555.66c-22.249,5.229-37.738,31.72-29.077,52.87c-13.671-4.801-29.298-5.169-42.323,1.179
			c-13.025,6.348-22.76,20.052-22.316,34.534c0.444,14.483,12.49,28.316,26.97,28.831c-14.647,5.054-23.529,21.853-21.334,37.191
			c2.195,15.338,14.101,28.342,28.568,33.89c14.467,5.548,30.99,4.234,45.39-1.486c-4.275,9.029,1.233,20.391,9.844,25.457
			c8.611,5.066,19.256,5.161,29.157,3.829c11.04-1.485,22.146-4.708,30.953-11.528c8.807-6.82,14.974-17.727,13.984-28.822
			c13.859,18.349,43.61,18.673,61.842,4.661c9.119-7.009,16.183-17.565,16.323-29.065c0.139-11.5-8.212-23.297-19.641-24.592
			c22.923,2.103,43.954-22.672,38.156-44.95c-5.798-22.277-36.238-33.657-55.228-20.646c5.123-14.867-1.96-32.943-15.82-40.372
			c-7.517-4.029-16.641-4.678-24.8-2.398c-14.422,4.031-10.196,9.279-21.628,1.164C840.781,564.014,830.417,550.347,807.812,555.66z
			"/>
	</g>
</g>
</svg>
