<svg  viewBox="0 0 13.546667 13.546667"  xmlns="http://www.w3.org/2000/svg">
<g fill-rule="evenodd">
<g transform="matrix(1.0091379 0 0 1.0091379 11.949972 11.404511)"><path d="m-.53033066 30.94105c0 6.88299-5.38190214 12.462757-12.02081534
 12.462757-6.638912 0-12.020814-5.579767-12.020814-12.462757 0-6.882991 5.381902-12.462758 12.020814-12.462758 6.6389132 0 12.02081534 5.579767 12.02081534 12.462758z" 
 fill="#fae75d" transform="matrix(.30521134 0 0 .30521134 -1.298678 -13.886131)"/>
 <path d="m-7.5912474-3.9987827c.4237176 0 .7868276.2398906.9798712.5856233.1086768-.081394.2474839-.1340664.3998115-.1340664.3461999 0 .6271749.2528705.6271749.564444
  0 .069972-.013296.1356913-.039189.197554.3937405.1582734.6663602.5168076.6663602.9313388 0 .5628641-.5034947 1.01599485-1.1289146 1.01599485h-2.2577268c-.6254186
   0-1.1289143-.45313075-1.1289143-1.01599485 0-.4459145.3181026-.8220577.7603854-.9595576 0-.01917-.00778-.036912-.00778-.056426 0-.6231529.5057533-1.1288931 
   1.128915-1.1288931z" fill="#fff" fill-rule="evenodd"/></g></g></svg>